<?xml version="1.0" encoding="UTF-8"?>
<svg xmlns="http://www.w3.org/2000/svg" xmlns:xlink="http://www.w3.org/1999/xlink" width="491px" height="199px" viewBox="0 0 491 199" version="1.1">
<defs>
<clipPath id="clip1">
  <path d="M 0.25 0 L 490.75 0 L 490.75 199 L 0.25 199 Z M 0.25 0 "/>
</clipPath>
</defs>
<g id="surface1">
<g clip-path="url(#clip1)" clip-rule="nonzero">
<path style=" stroke:none;fill-rule:evenodd;fill:rgb(10.588235%,9.411765%,10.196079%);fill-opacity:1;" d="M 159.328125 152.578125 C 159.328125 170.839844 144.4375 185.738281 126.1875 185.738281 L 126.1875 199 C 143.027344 199 157.824219 189.941406 165.953125 176.441406 L 165.953125 152.578125 Z M 172.582031 152.578125 C 172.582031 170.839844 187.472656 185.738281 205.726562 185.738281 L 205.726562 199 C 188.878906 199 174.085938 189.941406 165.953125 176.441406 L 165.953125 152.578125 Z M 331.664062 46.421875 C 331.664062 28.160156 346.550781 13.265625 364.804688 13.265625 L 364.804688 0 C 347.960938 0 333.164062 9.0625 325.035156 22.558594 L 325.035156 46.421875 Z M 318.402344 46.445312 L 325.035156 46.445312 L 325.035156 22.582031 C 316.90625 9.082031 302.109375 0.0234375 285.261719 0.0234375 L 285.261719 13.285156 C 303.519531 13.285156 318.402344 28.183594 318.402344 46.445312 Z M 318.402344 152.5625 C 318.402344 170.820312 303.519531 185.757812 285.261719 185.757812 L 285.261719 198.980469 C 310.820312 198.980469 331.664062 178.125 331.664062 152.5625 Z M 477.484375 46.449219 L 490.75 46.449219 C 490.75 20.878906 469.90625 0.0273438 444.34375 0.0273438 L 444.34375 13.285156 C 462.59375 13.285156 477.484375 28.183594 477.484375 46.449219 Z M 13.503906 152.5625 L 0.25 152.5625 C 0.25 178.125 21.089844 198.980469 46.644531 198.980469 L 46.644531 185.71875 C 28.390625 185.71875 13.503906 170.820312 13.503906 152.5625 Z M 205.738281 0.0273438 C 181.449219 0.0273438 159.285156 20.984375 159.328125 46.429688 L 172.59375 46.429688 C 172.59375 27.582031 187.988281 13.265625 205.734375 13.257812 C 205.691406 6.945312 205.695312 4.847656 205.738281 0.0273438 Z M 331.664062 185.722656 L 331.664062 198.992188 L 411.207031 198.992188 L 411.207031 132.660156 L 490.75 132.660156 L 490.75 46.449219 L 477.484375 46.449219 L 477.484375 119.394531 L 411.207031 119.394531 L 411.207031 46.449219 L 397.949219 46.449219 L 397.949219 185.71875 Z M 364.804688 0 L 444.34375 0.0273438 L 444.34375 13.300781 L 364.804688 13.265625 Z M 331.695312 123.273438 L 331.664062 152.5625 L 318.402344 152.5625 L 318.402344 128.773438 L 240.863281 51.070312 L 250.15625 41.667969 Z M 159.328125 75.734375 L 240.863281 157.339844 L 250.15625 147.9375 L 172.59375 70.234375 L 172.59375 46.429688 L 159.328125 46.429688 Z M 0.25 0.0273438 L 159.328125 0.0273438 L 159.328125 13.285156 L 93.042969 13.285156 L 93.042969 152.28125 L 79.785156 152.28125 L 79.785156 13.285156 L 13.503906 13.285156 L 13.503906 152.5625 L 0.25 152.5625 Z M 46.644531 185.71875 L 126.199219 185.71875 L 126.199219 198.992188 L 46.644531 198.992188 Z M 205.730469 0.03125 L 285.269531 0.0273438 L 285.269531 13.300781 L 205.730469 13.257812 Z M 205.726562 185.738281 L 285.269531 185.785156 L 285.269531 198.984375 L 205.730469 198.964844 L 205.726562 185.738281 "/>
</g>
</g>
</svg>
