<?xml version="1.0" encoding="UTF-8"?>
<svg xmlns="http://www.w3.org/2000/svg" xmlns:xlink="http://www.w3.org/1999/xlink" width="100px" height="41px" viewBox="0 0 100 41" version="1.1">
<defs>
<clipPath id="clip1">
  <path d="M 0.0507812 0 L 99.949219 0 L 99.949219 41 L 0.0507812 41 Z M 0.0507812 0 "/>
</clipPath>
</defs>
<g id="surface1">
<g clip-path="url(#clip1)" clip-rule="nonzero">
<path style=" stroke:none;fill-rule:evenodd;fill:rgb(10.588235%,9.411765%,10.196079%);fill-opacity:1;" d="M 32.449219 31.4375 C 32.449219 35.199219 29.417969 38.265625 25.699219 38.265625 L 25.699219 41 C 29.128906 41 32.144531 39.132812 33.800781 36.351562 L 33.800781 31.4375 Z M 35.148438 31.4375 C 35.148438 35.199219 38.183594 38.265625 41.898438 38.265625 L 41.898438 41 C 38.46875 41 35.457031 39.132812 33.800781 36.351562 L 33.800781 31.4375 Z M 67.550781 9.5625 C 67.550781 5.800781 70.582031 2.734375 74.296875 2.734375 L 74.296875 0 C 70.867188 0 67.855469 1.867188 66.199219 4.648438 L 66.199219 9.5625 Z M 64.847656 9.570312 L 66.199219 9.570312 L 66.199219 4.652344 C 64.542969 1.871094 61.527344 0.00390625 58.097656 0.00390625 L 58.097656 2.738281 C 61.816406 2.738281 64.847656 5.804688 64.847656 9.570312 Z M 64.847656 31.433594 C 64.847656 35.195312 61.816406 38.273438 58.097656 38.273438 L 58.097656 40.996094 C 63.304688 40.996094 67.550781 36.699219 67.550781 31.433594 Z M 97.246094 9.570312 L 99.949219 9.570312 C 99.949219 4.300781 95.703125 0.00390625 90.496094 0.00390625 L 90.496094 2.738281 C 94.214844 2.738281 97.246094 5.804688 97.246094 9.570312 Z M 2.75 31.433594 L 0.0507812 31.433594 C 0.0507812 36.699219 4.296875 40.996094 9.5 40.996094 L 9.5 38.261719 C 5.78125 38.261719 2.75 35.195312 2.75 31.433594 Z M 41.902344 0.00390625 C 36.953125 0.00390625 32.441406 4.324219 32.449219 9.566406 L 35.152344 9.566406 C 35.152344 5.683594 38.285156 2.734375 41.902344 2.730469 C 41.890625 1.429688 41.894531 1 41.902344 0.00390625 Z M 67.550781 38.265625 L 67.550781 41 L 83.75 41 L 83.75 27.332031 L 99.949219 27.332031 L 99.949219 9.570312 L 97.246094 9.570312 L 97.246094 24.597656 L 83.75 24.597656 L 83.75 9.570312 L 81.046875 9.570312 L 81.046875 38.261719 Z M 74.296875 0 L 90.496094 0.00390625 L 90.496094 2.738281 L 74.296875 2.734375 Z M 67.554688 25.398438 L 67.550781 31.433594 L 64.847656 31.433594 L 64.847656 26.53125 L 49.054688 10.523438 L 50.949219 8.585938 Z M 32.449219 15.605469 L 49.054688 32.417969 L 50.949219 30.480469 L 35.152344 14.46875 L 35.152344 9.566406 L 32.449219 9.566406 Z M 0.0507812 0.00390625 L 32.449219 0.00390625 L 32.449219 2.738281 L 18.949219 2.738281 L 18.949219 31.375 L 16.25 31.375 L 16.25 2.738281 L 2.75 2.738281 L 2.75 31.433594 L 0.0507812 31.433594 Z M 9.5 38.261719 L 25.703125 38.261719 L 25.703125 41 L 9.5 41 Z M 41.898438 0.0078125 L 58.101562 0.00390625 L 58.101562 2.738281 L 41.898438 2.730469 Z M 41.898438 38.265625 L 58.101562 38.277344 L 58.101562 40.996094 L 41.898438 40.992188 L 41.898438 38.265625 "/>
</g>
</g>
</svg>
