<?xml version="1.0" encoding="UTF-8"?>
<svg xmlns="http://www.w3.org/2000/svg" xmlns:xlink="http://www.w3.org/1999/xlink" width="120px" height="49px" viewBox="0 0 120 49" version="1.1">
<defs>
<clipPath id="clip1">
  <path d="M 0.0625 0 L 119.9375 0 L 119.9375 49 L 0.0625 49 Z M 0.0625 0 "/>
</clipPath>
</defs>
<g id="surface1">
<g clip-path="url(#clip1)" clip-rule="nonzero">
<path style=" stroke:none;fill-rule:evenodd;fill:rgb(10.588235%,9.411765%,10.196079%);fill-opacity:1;" d="M 38.9375 37.570312 C 38.9375 42.066406 35.300781 45.734375 30.839844 45.734375 L 30.839844 49 C 34.957031 49 38.570312 46.769531 40.558594 43.445312 L 40.558594 37.570312 Z M 42.179688 37.570312 C 42.179688 42.066406 45.816406 45.734375 50.28125 45.734375 L 50.28125 49 C 46.160156 49 42.546875 46.769531 40.558594 43.445312 L 40.558594 37.570312 Z M 81.058594 11.429688 C 81.058594 6.933594 84.695312 3.265625 89.15625 3.265625 L 89.15625 0 C 85.042969 0 81.425781 2.230469 79.4375 5.554688 L 79.4375 11.429688 Z M 77.816406 11.4375 L 79.4375 11.4375 L 79.4375 5.558594 C 77.453125 2.238281 73.835938 0.00390625 69.71875 0.00390625 L 69.71875 3.269531 C 74.179688 3.269531 77.816406 6.941406 77.816406 11.4375 Z M 77.816406 37.566406 C 77.816406 42.0625 74.179688 45.738281 69.71875 45.738281 L 69.71875 48.996094 C 75.964844 48.996094 81.058594 43.859375 81.058594 37.566406 Z M 116.695312 11.4375 L 119.9375 11.4375 C 119.9375 5.140625 114.84375 0.0078125 108.597656 0.0078125 L 108.597656 3.269531 C 113.058594 3.269531 116.695312 6.941406 116.695312 11.4375 Z M 3.300781 37.566406 L 0.0625 37.566406 C 0.0625 43.859375 5.15625 48.996094 11.398438 48.996094 L 11.398438 45.730469 C 6.9375 45.730469 3.300781 42.0625 3.300781 37.566406 Z M 50.28125 0.0078125 C 44.347656 0.0078125 38.929688 5.167969 38.9375 11.433594 L 42.183594 11.433594 C 42.183594 6.792969 45.945312 3.265625 50.28125 3.265625 C 50.269531 1.710938 50.273438 1.195312 50.28125 0.0078125 Z M 81.058594 45.730469 L 81.058594 49 L 100.5 49 L 100.5 32.664062 L 119.9375 32.664062 L 119.9375 11.4375 L 116.695312 11.4375 L 116.695312 29.398438 L 100.5 29.398438 L 100.5 11.4375 L 97.257812 11.4375 L 97.257812 45.730469 Z M 89.15625 0 L 108.597656 0.0078125 L 108.597656 3.273438 L 89.15625 3.265625 Z M 81.066406 30.355469 L 81.058594 37.566406 L 77.816406 37.566406 L 77.816406 31.707031 L 58.867188 12.574219 L 61.136719 10.261719 Z M 38.9375 18.648438 L 58.867188 38.742188 L 61.136719 36.425781 L 42.183594 17.292969 L 42.183594 11.433594 L 38.9375 11.433594 Z M 0.0625 0.0078125 L 38.9375 0.0078125 L 38.9375 3.269531 L 22.738281 3.269531 L 22.738281 37.496094 L 19.5 37.496094 L 19.5 3.269531 L 3.300781 3.269531 L 3.300781 37.566406 L 0.0625 37.566406 Z M 11.398438 45.730469 L 30.84375 45.730469 L 30.84375 49 L 11.398438 49 Z M 50.28125 0.0078125 L 69.71875 0.0078125 L 69.71875 3.273438 L 50.28125 3.265625 Z M 50.28125 45.734375 L 69.71875 45.746094 L 69.71875 48.996094 L 50.28125 48.992188 L 50.28125 45.734375 "/>
</g>
</g>
</svg>
