<?xml version="1.0" encoding="UTF-8"?>
<svg xmlns="http://www.w3.org/2000/svg" xmlns:xlink="http://www.w3.org/1999/xlink" width="200px" height="81px" viewBox="0 0 200 81" version="1.1">
<defs>
<clipPath id="clip1">
  <path d="M 0.101562 0 L 199.898438 0 L 199.898438 81 L 0.101562 81 Z M 0.101562 0 "/>
</clipPath>
</defs>
<g id="surface1">
<g clip-path="url(#clip1)" clip-rule="nonzero">
<path style=" stroke:none;fill-rule:evenodd;fill:rgb(10.588235%,9.411765%,10.196079%);fill-opacity:1;" d="M 64.898438 62.105469 C 64.898438 69.539062 58.835938 75.601562 51.398438 75.601562 L 51.398438 81 C 58.261719 81 64.285156 77.3125 67.597656 71.816406 L 67.597656 62.105469 Z M 70.296875 62.105469 C 70.296875 69.539062 76.363281 75.601562 83.800781 75.601562 L 83.800781 81 C 76.9375 81 70.910156 77.3125 67.597656 71.816406 L 67.597656 62.105469 Z M 135.097656 18.894531 C 135.097656 11.460938 141.160156 5.398438 148.597656 5.398438 L 148.597656 0 C 141.734375 0 135.707031 3.6875 132.398438 9.183594 L 132.398438 18.894531 Z M 129.695312 18.902344 L 132.398438 18.902344 L 132.398438 9.191406 C 129.085938 3.699219 123.058594 0.0078125 116.195312 0.0078125 L 116.195312 5.40625 C 123.632812 5.40625 129.695312 11.472656 129.695312 18.902344 Z M 129.695312 62.097656 C 129.695312 69.53125 123.632812 75.609375 116.195312 75.609375 L 116.195312 80.992188 C 126.605469 80.992188 135.097656 72.503906 135.097656 62.097656 Z M 194.496094 18.90625 L 199.898438 18.90625 C 199.898438 8.5 191.40625 0.0117188 180.996094 0.0117188 L 180.996094 5.40625 C 188.429688 5.40625 194.496094 11.472656 194.496094 18.90625 Z M 5.5 62.097656 L 0.101562 62.097656 C 0.101562 72.503906 8.589844 80.992188 19 80.992188 L 19 75.59375 C 11.566406 75.59375 5.5 69.53125 5.5 62.097656 Z M 83.804688 0.0117188 C 73.910156 0.0117188 64.882812 8.542969 64.898438 18.898438 L 70.304688 18.898438 C 70.304688 11.226562 76.574219 5.398438 83.800781 5.398438 C 83.785156 2.828125 83.785156 1.972656 83.804688 0.0117188 Z M 135.097656 75.59375 L 135.097656 80.996094 L 167.496094 80.996094 L 167.496094 53.996094 L 199.898438 53.996094 L 199.898438 18.90625 L 194.496094 18.90625 L 194.496094 48.597656 L 167.496094 48.597656 L 167.496094 18.90625 L 162.097656 18.90625 L 162.097656 75.59375 Z M 148.597656 0 L 180.996094 0.0117188 L 180.996094 5.414062 L 148.597656 5.398438 Z M 135.109375 50.175781 L 135.097656 62.097656 L 129.695312 62.097656 L 129.695312 52.414062 L 98.113281 20.785156 L 101.898438 16.960938 Z M 64.898438 30.828125 L 98.113281 64.042969 L 101.898438 60.214844 L 70.304688 28.585938 L 70.304688 18.898438 L 64.898438 18.898438 Z M 0.101562 0.0117188 L 64.898438 0.0117188 L 64.898438 5.40625 L 37.898438 5.40625 L 37.898438 61.984375 L 32.5 61.984375 L 32.5 5.40625 L 5.5 5.40625 L 5.5 62.097656 L 0.101562 62.097656 Z M 19 75.59375 L 51.40625 75.59375 L 51.40625 80.996094 L 19 80.996094 Z M 83.800781 0.0117188 L 116.199219 0.0117188 L 116.199219 5.414062 L 83.800781 5.398438 Z M 83.800781 75.601562 L 116.199219 75.621094 L 116.199219 80.992188 L 83.800781 80.984375 L 83.800781 75.601562 "/>
</g>
</g>
</svg>
