<?xml version="1.0" encoding="UTF-8"?>
<svg xmlns="http://www.w3.org/2000/svg" xmlns:xlink="http://www.w3.org/1999/xlink" width="985px" height="399px" viewBox="0 0 493 200" version="1.1">
<defs>
<clipPath id="clip1">
  <path d="M 0 0 L 492.878906 0 L 492.878906 200 L 0 200 Z M 0 0 "/>
</clipPath>
</defs>
<g id="surface1">
<g clip-path="url(#clip1)" clip-rule="nonzero">
<path style=" stroke:none;fill-rule:evenodd;fill:rgb(10.588235%,9.411765%,10.196079%);fill-opacity:1;" d="M 159.847656 153.464844 C 159.847656 171.832031 144.890625 186.8125 126.550781 186.8125 L 126.550781 200.152344 C 143.472656 200.152344 158.339844 191.042969 166.507812 177.464844 L 166.507812 153.464844 Z M 173.167969 153.464844 C 173.167969 171.832031 188.128906 186.8125 206.476562 186.8125 L 206.476562 200.152344 C 189.542969 200.152344 174.679688 191.042969 166.507812 177.464844 L 166.507812 153.464844 Z M 333.023438 46.691406 C 333.023438 28.320312 347.980469 13.34375 366.324219 13.34375 L 366.324219 0 C 349.394531 0 334.527344 9.113281 326.363281 22.6875 L 326.363281 46.691406 Z M 319.695312 46.710938 L 326.363281 46.710938 L 326.363281 22.714844 C 318.195312 9.136719 303.324219 0.0234375 286.394531 0.0234375 L 286.394531 13.363281 C 304.742188 13.363281 319.695312 28.347656 319.695312 46.710938 Z M 319.695312 153.445312 C 319.695312 171.8125 304.742188 186.835938 286.394531 186.835938 L 286.394531 200.136719 C 312.074219 200.136719 333.023438 179.15625 333.023438 153.445312 Z M 479.550781 46.71875 L 492.878906 46.71875 C 492.878906 21 471.933594 0.0273438 446.246094 0.0273438 L 446.246094 13.363281 C 464.585938 13.363281 479.550781 28.347656 479.550781 46.71875 Z M 13.320312 153.445312 L 0 153.445312 C 0 179.15625 20.941406 200.136719 46.621094 200.136719 L 46.621094 186.792969 C 28.277344 186.792969 13.320312 171.8125 13.320312 153.445312 Z M 206.484375 0.0273438 C 182.078125 0.0273438 159.808594 21.109375 159.847656 46.699219 L 173.179688 46.699219 C 173.179688 27.738281 188.648438 13.34375 206.484375 13.335938 C 206.4375 6.984375 206.445312 4.875 206.484375 0.0273438 Z M 333.023438 186.796875 L 333.023438 200.148438 L 412.949219 200.148438 L 412.949219 133.429688 L 492.878906 133.429688 L 492.878906 46.71875 L 479.550781 46.71875 L 479.550781 120.085938 L 412.949219 120.085938 L 412.949219 46.71875 L 399.625 46.71875 L 399.625 186.792969 Z M 366.324219 0 L 446.246094 0.0273438 L 446.246094 13.375 L 366.324219 13.34375 Z M 333.054688 123.988281 L 333.023438 153.445312 L 319.695312 153.445312 L 319.695312 129.519531 L 241.78125 51.363281 L 251.121094 41.910156 Z M 159.847656 76.175781 L 241.78125 158.25 L 251.121094 148.792969 L 173.179688 70.640625 L 173.179688 46.699219 L 159.847656 46.699219 Z M 0 0.0273438 L 159.847656 0.0273438 L 159.847656 13.363281 L 93.246094 13.363281 L 93.246094 153.164062 L 79.921875 153.164062 L 79.921875 13.363281 L 13.320312 13.363281 L 13.320312 153.445312 L 0 153.445312 Z M 46.621094 186.792969 L 126.5625 186.792969 L 126.5625 200.148438 L 46.621094 200.148438 Z M 206.476562 0.03125 L 286.402344 0.0273438 L 286.402344 13.375 L 206.476562 13.335938 Z M 206.476562 186.8125 L 286.402344 186.863281 L 286.402344 200.140625 L 206.476562 200.117188 L 206.476562 186.8125 "/>
</g>
</g>
</svg>
