<?xml version="1.0" encoding="UTF-8"?>
<svg xmlns="http://www.w3.org/2000/svg" xmlns:xlink="http://www.w3.org/1999/xlink" width="985px" height="399px" viewBox="0 0 738 299" version="1.1">
<defs>
<clipPath id="clip1">
  <path d="M 0 0 L 737.816406 0 L 737.816406 299 L 0 299 Z M 0 0 "/>
</clipPath>
</defs>
<g id="surface1">
<g clip-path="url(#clip1)" clip-rule="nonzero">
<path style=" stroke:none;fill-rule:evenodd;fill:rgb(10.588235%,9.411765%,10.196079%);fill-opacity:1;" d="M 239.289062 229.429688 C 239.289062 256.886719 216.890625 279.285156 189.4375 279.285156 L 189.4375 299.230469 C 214.769531 299.230469 237.027344 285.605469 249.257812 265.308594 L 249.257812 229.429688 Z M 259.226562 229.429688 C 259.226562 256.886719 281.625 279.285156 309.082031 279.285156 L 309.082031 299.230469 C 283.738281 299.230469 261.492188 285.605469 249.257812 265.308594 L 249.257812 229.429688 Z M 498.519531 69.804688 C 498.519531 42.339844 520.910156 19.945312 548.371094 19.945312 L 548.371094 0 C 523.03125 0 500.773438 13.625 488.550781 33.921875 L 488.550781 69.804688 Z M 478.574219 69.835938 L 488.550781 69.835938 L 488.550781 33.957031 C 476.324219 13.660156 454.058594 0.0351562 428.71875 0.0351562 L 428.71875 19.976562 C 456.183594 19.976562 478.574219 42.378906 478.574219 69.835938 Z M 478.574219 229.402344 C 478.574219 256.859375 456.183594 279.316406 428.71875 279.316406 L 428.71875 299.203125 C 467.164062 299.203125 498.519531 267.839844 498.519531 229.402344 Z M 717.867188 69.84375 L 737.816406 69.84375 C 737.816406 31.394531 706.464844 0.0390625 668.015625 0.0390625 L 668.015625 19.976562 C 695.464844 19.976562 717.867188 42.378906 717.867188 69.84375 Z M 19.941406 229.402344 L 0 229.402344 C 0 267.839844 31.351562 299.203125 69.792969 299.203125 L 69.792969 279.257812 C 42.332031 279.257812 19.941406 256.859375 19.941406 229.402344 Z M 309.097656 0.0390625 C 272.5625 0.0390625 239.226562 31.554688 239.289062 69.816406 L 259.246094 69.816406 C 259.246094 41.472656 282.402344 19.945312 309.097656 19.9375 C 309.027344 10.445312 309.035156 7.289062 309.097656 0.0390625 Z M 498.519531 279.261719 L 498.519531 299.222656 L 618.167969 299.222656 L 618.167969 199.476562 L 737.816406 199.476562 L 737.816406 69.84375 L 717.867188 69.84375 L 717.867188 179.53125 L 618.167969 179.53125 L 618.167969 69.84375 L 598.222656 69.84375 L 598.222656 279.257812 Z M 548.371094 0 L 668.015625 0.0390625 L 668.015625 19.996094 L 548.371094 19.945312 Z M 498.566406 185.359375 L 498.519531 229.402344 L 478.574219 229.402344 L 478.574219 193.632812 L 361.9375 76.789062 L 375.914062 62.652344 Z M 239.289062 113.882812 L 361.9375 236.585938 L 375.914062 222.449219 L 259.246094 105.609375 L 259.246094 69.816406 L 239.289062 69.816406 Z M 0 0.0390625 L 239.289062 0.0390625 L 239.289062 19.976562 L 139.585938 19.976562 L 139.585938 228.976562 L 119.640625 228.976562 L 119.640625 19.976562 L 19.941406 19.976562 L 19.941406 229.402344 L 0 229.402344 Z M 69.792969 279.257812 L 189.457031 279.257812 L 189.457031 299.222656 L 69.792969 299.222656 Z M 309.085938 0.046875 L 428.734375 0.0390625 L 428.734375 19.996094 L 309.085938 19.9375 Z M 309.082031 279.285156 L 428.734375 279.359375 L 428.734375 299.207031 L 309.085938 299.175781 L 309.082031 279.285156 "/>
</g>
</g>
</svg>
